<mxfile host="app.diagrams.net" modified="2022-01-03T21:34:12.713Z" agent="5.0 (Windows NT 10.0; Win64; x64) AppleWebKit/537.36 (KHTML, like Gecko) Chrome/96.0.4664.110 Safari/537.36 Edg/96.0.1054.62" etag="wuM13YMbWuhwPkpnJO7O" version="16.1.4" type="github">
  <diagram id="5fEQ9Jq2SIq1SOl7DQiJ" name="Page-1">
    <mxGraphModel dx="868" dy="492" grid="1" gridSize="10" guides="1" tooltips="1" connect="1" arrows="1" fold="1" page="1" pageScale="1" pageWidth="827" pageHeight="1169" math="0" shadow="0">
      <root>
        <mxCell id="0" />
        <mxCell id="1" parent="0" />
        <mxCell id="LFErCLL9WLva4mEW7bkm-17" style="edgeStyle=orthogonalEdgeStyle;rounded=0;orthogonalLoop=1;jettySize=auto;html=1;startArrow=none;" parent="1" source="8y5_A2Y5UgOkVAHwrXlt-7" edge="1">
          <mxGeometry relative="1" as="geometry">
            <mxPoint x="170" y="140" as="targetPoint" />
          </mxGeometry>
        </mxCell>
        <mxCell id="LFErCLL9WLva4mEW7bkm-1" value="INÍCIO" style="ellipse;whiteSpace=wrap;html=1;fillColor=#d5e8d4;strokeColor=#82b366;" parent="1" vertex="1">
          <mxGeometry x="111.25" width="120" height="70" as="geometry" />
        </mxCell>
        <mxCell id="LFErCLL9WLva4mEW7bkm-24" style="edgeStyle=orthogonalEdgeStyle;rounded=0;orthogonalLoop=1;jettySize=auto;html=1;" parent="1" source="LFErCLL9WLva4mEW7bkm-2" edge="1">
          <mxGeometry relative="1" as="geometry">
            <mxPoint x="420" y="190" as="targetPoint" />
          </mxGeometry>
        </mxCell>
        <mxCell id="8y5_A2Y5UgOkVAHwrXlt-14" style="edgeStyle=orthogonalEdgeStyle;rounded=0;orthogonalLoop=1;jettySize=auto;html=1;" edge="1" parent="1" source="LFErCLL9WLva4mEW7bkm-2">
          <mxGeometry relative="1" as="geometry">
            <mxPoint x="170" y="270" as="targetPoint" />
          </mxGeometry>
        </mxCell>
        <mxCell id="LFErCLL9WLva4mEW7bkm-2" value="É MAIOR DE 18 ANOS?" style="rhombus;whiteSpace=wrap;html=1;fillColor=#ffe6cc;strokeColor=#d79b00;" parent="1" vertex="1">
          <mxGeometry x="80" y="160" width="180" height="70" as="geometry" />
        </mxCell>
        <mxCell id="LFErCLL9WLva4mEW7bkm-37" style="edgeStyle=orthogonalEdgeStyle;rounded=0;orthogonalLoop=1;jettySize=auto;html=1;" parent="1" source="LFErCLL9WLva4mEW7bkm-3" edge="1">
          <mxGeometry relative="1" as="geometry">
            <mxPoint x="171" y="420" as="targetPoint" />
          </mxGeometry>
        </mxCell>
        <mxCell id="LFErCLL9WLva4mEW7bkm-38" style="edgeStyle=orthogonalEdgeStyle;rounded=0;orthogonalLoop=1;jettySize=auto;html=1;" parent="1" source="LFErCLL9WLva4mEW7bkm-3" edge="1">
          <mxGeometry relative="1" as="geometry">
            <mxPoint x="410" y="305" as="targetPoint" />
          </mxGeometry>
        </mxCell>
        <mxCell id="LFErCLL9WLva4mEW7bkm-3" value="A&amp;nbsp; DATA DO EVENTO MAIOR&amp;nbsp;&lt;br&gt;&amp;nbsp;QUE A ATUAL?" style="rhombus;whiteSpace=wrap;html=1;fillColor=#ffe6cc;strokeColor=#d79b00;" parent="1" vertex="1">
          <mxGeometry x="52.5" y="280" width="237.5" height="90" as="geometry" />
        </mxCell>
        <mxCell id="LFErCLL9WLva4mEW7bkm-20" style="edgeStyle=orthogonalEdgeStyle;rounded=0;orthogonalLoop=1;jettySize=auto;html=1;" parent="1" source="LFErCLL9WLva4mEW7bkm-4" edge="1">
          <mxGeometry relative="1" as="geometry">
            <mxPoint x="180" y="580" as="targetPoint" />
          </mxGeometry>
        </mxCell>
        <mxCell id="LFErCLL9WLva4mEW7bkm-4" value="LISTAR PARTICIPANTES E PALESTRANTES" style="shape=dataStorage;whiteSpace=wrap;html=1;fixedSize=1;size=35;fillColor=#f5f5f5;strokeColor=#666666;fontColor=#333333;" parent="1" vertex="1">
          <mxGeometry x="60" y="430" width="240" height="80" as="geometry" />
        </mxCell>
        <mxCell id="LFErCLL9WLva4mEW7bkm-21" style="edgeStyle=orthogonalEdgeStyle;rounded=0;orthogonalLoop=1;jettySize=auto;html=1;" parent="1" source="LFErCLL9WLva4mEW7bkm-6" edge="1">
          <mxGeometry relative="1" as="geometry">
            <mxPoint x="175" y="740" as="targetPoint" />
          </mxGeometry>
        </mxCell>
        <mxCell id="LFErCLL9WLva4mEW7bkm-26" style="edgeStyle=orthogonalEdgeStyle;rounded=0;orthogonalLoop=1;jettySize=auto;html=1;" parent="1" source="LFErCLL9WLva4mEW7bkm-6" edge="1">
          <mxGeometry relative="1" as="geometry">
            <mxPoint x="380" y="600" as="targetPoint" />
          </mxGeometry>
        </mxCell>
        <mxCell id="LFErCLL9WLva4mEW7bkm-6" value="&amp;lt;= 100&lt;br&gt;NÚMERO DE PARTICIPANTES&lt;br&gt;DO EVENTO ?" style="rhombus;whiteSpace=wrap;html=1;fillColor=#ffe6cc;strokeColor=#d79b00;" parent="1" vertex="1">
          <mxGeometry x="40" y="590" width="270" height="80" as="geometry" />
        </mxCell>
        <mxCell id="8y5_A2Y5UgOkVAHwrXlt-17" style="edgeStyle=orthogonalEdgeStyle;rounded=0;orthogonalLoop=1;jettySize=auto;html=1;" edge="1" parent="1" source="LFErCLL9WLva4mEW7bkm-9">
          <mxGeometry relative="1" as="geometry">
            <mxPoint x="380" y="785" as="targetPoint" />
          </mxGeometry>
        </mxCell>
        <mxCell id="LFErCLL9WLva4mEW7bkm-9" value="PERMITIR CADASTRO" style="rounded=0;whiteSpace=wrap;html=1;fillColor=#dae8fc;strokeColor=#6c8ebf;" parent="1" vertex="1">
          <mxGeometry x="100" y="750" width="160" height="70" as="geometry" />
        </mxCell>
        <mxCell id="8y5_A2Y5UgOkVAHwrXlt-6" style="edgeStyle=orthogonalEdgeStyle;rounded=0;orthogonalLoop=1;jettySize=auto;html=1;entryX=1;entryY=0.5;entryDx=0;entryDy=0;" edge="1" parent="1" source="LFErCLL9WLva4mEW7bkm-12" target="LFErCLL9WLva4mEW7bkm-16">
          <mxGeometry relative="1" as="geometry">
            <Array as="points">
              <mxPoint x="710" y="190" />
              <mxPoint x="710" y="525" />
              <mxPoint x="810" y="525" />
              <mxPoint x="810" y="875" />
            </Array>
          </mxGeometry>
        </mxCell>
        <mxCell id="LFErCLL9WLva4mEW7bkm-12" value="CADASTRO NÃO PERMITIDO PARA&amp;nbsp; MENORES DE 18 ANOS" style="shape=display;whiteSpace=wrap;html=1;fillColor=#f5f5f5;fontColor=#333333;strokeColor=#666666;" parent="1" vertex="1">
          <mxGeometry x="430" y="150" width="230" height="80" as="geometry" />
        </mxCell>
        <mxCell id="8y5_A2Y5UgOkVAHwrXlt-5" style="edgeStyle=orthogonalEdgeStyle;rounded=0;orthogonalLoop=1;jettySize=auto;html=1;" edge="1" parent="1" source="LFErCLL9WLva4mEW7bkm-13" target="LFErCLL9WLva4mEW7bkm-16">
          <mxGeometry relative="1" as="geometry">
            <mxPoint x="790" y="893" as="targetPoint" />
            <Array as="points">
              <mxPoint x="558" y="550" />
              <mxPoint x="788" y="550" />
            </Array>
          </mxGeometry>
        </mxCell>
        <mxCell id="LFErCLL9WLva4mEW7bkm-13" value="DATA DO EVENTO INFERIOR A DATA&amp;nbsp; &amp;nbsp; &amp;nbsp; &amp;nbsp;ATUAL ,NÃO PERMITIR O CADASTRO." style="shape=display;whiteSpace=wrap;html=1;fillColor=#f5f5f5;fontColor=#333333;strokeColor=#666666;" parent="1" vertex="1">
          <mxGeometry x="426.25" y="265" width="263.75" height="80" as="geometry" />
        </mxCell>
        <mxCell id="8y5_A2Y5UgOkVAHwrXlt-2" style="edgeStyle=orthogonalEdgeStyle;rounded=0;orthogonalLoop=1;jettySize=auto;html=1;entryX=0.5;entryY=0;entryDx=0;entryDy=0;" edge="1" parent="1" source="LFErCLL9WLva4mEW7bkm-14" target="LFErCLL9WLva4mEW7bkm-16">
          <mxGeometry relative="1" as="geometry">
            <Array as="points">
              <mxPoint x="545" y="700" />
              <mxPoint x="695" y="700" />
            </Array>
          </mxGeometry>
        </mxCell>
        <mxCell id="LFErCLL9WLva4mEW7bkm-14" value="LIMITE DE PARTICIPANTES EXCEDIDO , NÃO PERMITIR O CADASTRO." style="shape=display;whiteSpace=wrap;html=1;fillColor=#f5f5f5;fontColor=#333333;strokeColor=#666666;" parent="1" vertex="1">
          <mxGeometry x="398.75" y="565" width="292.5" height="70" as="geometry" />
        </mxCell>
        <mxCell id="8y5_A2Y5UgOkVAHwrXlt-1" style="edgeStyle=orthogonalEdgeStyle;rounded=0;orthogonalLoop=1;jettySize=auto;html=1;entryX=0.4;entryY=-0.009;entryDx=0;entryDy=0;entryPerimeter=0;" edge="1" parent="1" source="LFErCLL9WLva4mEW7bkm-15" target="LFErCLL9WLva4mEW7bkm-16">
          <mxGeometry relative="1" as="geometry" />
        </mxCell>
        <mxCell id="LFErCLL9WLva4mEW7bkm-15" value="CADASTRO EFETUADO !" style="shape=display;whiteSpace=wrap;html=1;fillColor=#f5f5f5;fontColor=#333333;strokeColor=#666666;" parent="1" vertex="1">
          <mxGeometry x="398.75" y="750" width="210" height="60" as="geometry" />
        </mxCell>
        <mxCell id="LFErCLL9WLva4mEW7bkm-16" value="FIM" style="ellipse;whiteSpace=wrap;html=1;fillColor=#d5e8d4;strokeColor=#82b366;" parent="1" vertex="1">
          <mxGeometry x="600" y="820" width="190" height="110" as="geometry" />
        </mxCell>
        <mxCell id="LFErCLL9WLva4mEW7bkm-28" value="NÃO" style="text;html=1;align=center;verticalAlign=middle;resizable=0;points=[];autosize=1;strokeColor=none;fillColor=none;" parent="1" vertex="1">
          <mxGeometry x="300" y="160" width="40" height="20" as="geometry" />
        </mxCell>
        <mxCell id="LFErCLL9WLva4mEW7bkm-29" value="SIM&lt;br&gt;" style="text;html=1;align=center;verticalAlign=middle;resizable=0;points=[];autosize=1;strokeColor=none;fillColor=none;" parent="1" vertex="1">
          <mxGeometry x="170" y="370" width="40" height="20" as="geometry" />
        </mxCell>
        <mxCell id="LFErCLL9WLva4mEW7bkm-30" value="NÃO" style="text;html=1;align=center;verticalAlign=middle;resizable=0;points=[];autosize=1;strokeColor=none;fillColor=none;" parent="1" vertex="1">
          <mxGeometry x="310" y="280" width="40" height="20" as="geometry" />
        </mxCell>
        <mxCell id="LFErCLL9WLva4mEW7bkm-31" value="SIM" style="text;html=1;align=center;verticalAlign=middle;resizable=0;points=[];autosize=1;strokeColor=none;fillColor=none;" parent="1" vertex="1">
          <mxGeometry x="190" y="530" width="40" height="20" as="geometry" />
        </mxCell>
        <mxCell id="LFErCLL9WLva4mEW7bkm-32" value="NÃO" style="text;html=1;align=center;verticalAlign=middle;resizable=0;points=[];autosize=1;strokeColor=none;fillColor=none;" parent="1" vertex="1">
          <mxGeometry x="320" y="570" width="40" height="20" as="geometry" />
        </mxCell>
        <mxCell id="LFErCLL9WLva4mEW7bkm-33" value="SIM" style="text;html=1;align=center;verticalAlign=middle;resizable=0;points=[];autosize=1;strokeColor=none;fillColor=none;" parent="1" vertex="1">
          <mxGeometry x="190" y="670" width="40" height="20" as="geometry" />
        </mxCell>
        <mxCell id="8y5_A2Y5UgOkVAHwrXlt-7" value="CADASTRAR PARTICIPANTES DE EVENTOS." style="rounded=0;whiteSpace=wrap;html=1;fillColor=#dae8fc;strokeColor=#6c8ebf;" vertex="1" parent="1">
          <mxGeometry x="80" y="90" width="180" height="50" as="geometry" />
        </mxCell>
        <mxCell id="8y5_A2Y5UgOkVAHwrXlt-8" value="" style="edgeStyle=orthogonalEdgeStyle;rounded=0;orthogonalLoop=1;jettySize=auto;html=1;endArrow=none;" edge="1" parent="1" source="LFErCLL9WLva4mEW7bkm-1" target="8y5_A2Y5UgOkVAHwrXlt-7">
          <mxGeometry relative="1" as="geometry">
            <mxPoint x="170" y="140" as="targetPoint" />
            <mxPoint x="170" y="80" as="sourcePoint" />
          </mxGeometry>
        </mxCell>
        <mxCell id="8y5_A2Y5UgOkVAHwrXlt-15" value="SIM&lt;br&gt;" style="text;html=1;align=center;verticalAlign=middle;resizable=0;points=[];autosize=1;strokeColor=none;fillColor=none;" vertex="1" parent="1">
          <mxGeometry x="180" y="230" width="40" height="20" as="geometry" />
        </mxCell>
      </root>
    </mxGraphModel>
  </diagram>
</mxfile>
